<svg width="2759" height="544" viewBox="0 0 2759 544" fill="none" xmlns="http://www.w3.org/2000/svg">
<path d="M168.243 289.415C174.68 320.022 190.443 347.883 213.364 369.164C236.285 390.446 265.236 404.102 296.236 408.254C327.237 412.406 358.762 406.851 386.475 392.351C414.188 377.852 436.728 355.122 450.993 327.288C465.258 299.453 470.548 267.882 466.134 236.918C461.721 205.955 447.821 177.119 426.348 154.378C404.874 131.638 376.882 116.11 346.221 109.931C315.561 103.752 283.739 107.225 255.133 119.873" stroke="#4190F5" stroke-width="33.6439" stroke-linecap="round"/>
<path d="M89.5283 37.5944C88.7437 28.2214 99.9439 22.8316 106.779 29.2927L319.482 230.357C339.396 249.181 322.3 282.333 295.417 277.025L8.26758 220.32C-0.959854 218.498 -3.06292 206.247 5.02832 201.451L83.875 154.718C92.882 149.38 98.0472 139.364 97.1738 128.93L89.5283 37.5944Z" fill="#184474"/>
<path d="M815.211 163.884C831.787 163.884 846.42 167.251 859.111 173.985C872.06 180.46 882.161 190.561 889.413 204.287C896.924 217.755 900.679 235.108 900.679 256.345V376H840.075V265.669C840.075 248.834 836.578 236.403 829.585 228.374C822.593 220.345 812.751 216.331 800.06 216.331C791.254 216.331 783.355 218.403 776.362 222.546C769.369 226.431 763.931 232.388 760.046 240.417C756.161 248.446 754.218 258.676 754.218 271.108V376H693.614V265.669C693.614 248.834 690.117 236.403 683.125 228.374C676.391 220.345 666.679 216.331 653.988 216.331C645.182 216.331 637.283 218.403 630.29 222.546C623.297 226.431 617.858 232.388 613.973 240.417C610.088 248.446 608.146 258.676 608.146 271.108V376H547.542V166.992H605.427V224.1L594.549 207.395C601.801 193.151 612.031 182.402 625.24 175.151C638.707 167.64 653.988 163.884 671.081 163.884C690.247 163.884 706.952 168.805 721.197 178.647C735.7 188.23 745.283 202.992 749.945 222.935L728.578 217.108C735.571 200.791 746.707 187.841 761.988 178.259C777.528 168.676 795.269 163.884 815.211 163.884ZM1060.25 379.108C1036.42 379.108 1015.44 374.446 997.31 365.122C979.439 355.799 965.583 343.108 955.741 327.05C945.9 310.734 940.979 292.216 940.979 271.496C940.979 250.518 945.77 232 955.353 215.942C965.195 199.626 978.533 186.935 995.367 177.87C1012.2 168.546 1031.24 163.884 1052.48 163.884C1072.94 163.884 1091.32 168.287 1107.64 177.093C1124.22 185.64 1137.3 198.072 1146.88 214.388C1156.46 230.446 1161.25 249.741 1161.25 272.273C1161.25 274.604 1161.12 277.324 1160.86 280.431C1160.61 283.28 1160.35 286 1160.09 288.59H990.317V253.237H1128.23L1104.92 263.726C1104.92 252.849 1102.72 243.395 1098.32 235.367C1093.91 227.338 1087.83 221.122 1080.06 216.719C1072.29 212.057 1063.22 209.726 1052.86 209.726C1042.5 209.726 1033.31 212.057 1025.28 216.719C1017.51 221.122 1011.42 227.467 1007.02 235.755C1002.62 243.784 1000.42 253.367 1000.42 264.503V273.827C1000.42 285.223 1002.88 295.324 1007.8 304.129C1012.98 312.676 1020.1 319.28 1029.17 323.942C1038.49 328.345 1049.37 330.547 1061.8 330.547C1072.94 330.547 1082.65 328.863 1090.94 325.496C1099.48 322.129 1107.25 317.079 1114.25 310.345L1146.49 345.309C1136.91 356.187 1124.86 364.604 1110.36 370.561C1095.86 376.259 1079.15 379.108 1060.25 379.108ZM1291.34 379.108C1271.66 379.108 1253.92 374.705 1238.12 365.899C1222.32 356.834 1209.76 344.273 1200.44 328.216C1191.37 312.158 1186.84 293.252 1186.84 271.496C1186.84 249.482 1191.37 230.446 1200.44 214.388C1209.76 198.331 1222.32 185.899 1238.12 177.093C1253.92 168.287 1271.66 163.884 1291.34 163.884C1308.95 163.884 1324.36 167.769 1337.57 175.539C1350.78 183.309 1361.01 195.093 1368.26 210.892C1375.52 226.69 1379.14 246.892 1379.14 271.496C1379.14 295.842 1375.64 316.043 1368.65 332.101C1361.66 347.899 1351.56 359.683 1338.35 367.453C1325.4 375.223 1309.73 379.108 1291.34 379.108ZM1301.83 329.381C1311.67 329.381 1320.61 327.05 1328.64 322.388C1336.67 317.726 1343.01 311.122 1347.67 302.575C1352.59 293.77 1355.05 283.41 1355.05 271.496C1355.05 259.323 1352.59 248.964 1347.67 240.417C1343.01 231.87 1336.67 225.266 1328.64 220.604C1320.61 215.942 1311.67 213.611 1301.83 213.611C1291.73 213.611 1282.67 215.942 1274.64 220.604C1266.61 225.266 1260.13 231.87 1255.21 240.417C1250.55 248.964 1248.22 259.323 1248.22 271.496C1248.22 283.41 1250.55 293.77 1255.21 302.575C1260.13 311.122 1266.61 317.726 1274.64 322.388C1282.67 327.05 1291.73 329.381 1301.83 329.381ZM1356.61 376V333.266L1357.77 271.108L1353.89 209.338V87.7404H1414.49V376H1356.61Z" fill="#4190F5"/>
<path d="M1594.12 379.108C1576.51 379.108 1561.1 375.223 1547.89 367.453C1534.69 359.683 1524.33 347.899 1516.82 332.101C1509.56 316.043 1505.94 295.842 1505.94 271.496C1505.94 246.892 1509.43 226.69 1516.43 210.892C1523.42 195.093 1533.52 183.309 1546.73 175.539C1559.94 167.769 1575.74 163.884 1594.12 163.884C1613.81 163.884 1631.42 168.417 1646.96 177.482C1662.76 186.287 1675.19 198.719 1684.25 214.777C1693.58 230.834 1698.24 249.741 1698.24 271.496C1698.24 293.511 1693.58 312.547 1684.25 328.604C1675.19 344.662 1662.76 357.093 1646.96 365.899C1631.42 374.705 1613.81 379.108 1594.12 379.108ZM1470.58 451.367V166.992H1528.47V209.726L1527.3 271.885L1531.19 333.655V451.367H1470.58ZM1583.64 329.381C1593.74 329.381 1602.67 327.05 1610.44 322.388C1618.47 317.726 1624.82 311.122 1629.48 302.575C1634.4 293.77 1636.86 283.41 1636.86 271.496C1636.86 259.323 1634.4 248.964 1629.48 240.417C1624.82 231.87 1618.47 225.266 1610.44 220.604C1602.67 215.942 1593.74 213.611 1583.64 213.611C1573.53 213.611 1564.47 215.942 1556.44 220.604C1548.41 225.266 1542.07 231.87 1537.41 240.417C1532.74 248.964 1530.41 259.323 1530.41 271.496C1530.41 283.41 1532.74 293.77 1537.41 302.575C1542.07 311.122 1548.41 317.726 1556.44 322.388C1564.47 327.05 1573.53 329.381 1583.64 329.381ZM1838.26 379.108C1815.99 379.108 1796.18 374.446 1778.82 365.122C1761.73 355.799 1748.13 343.108 1738.03 327.05C1728.19 310.734 1723.27 292.216 1723.27 271.496C1723.27 250.518 1728.19 232 1738.03 215.942C1748.13 199.626 1761.73 186.935 1778.82 177.87C1796.18 168.546 1815.99 163.884 1838.26 163.884C1860.28 163.884 1879.96 168.546 1897.31 177.87C1914.67 186.935 1928.26 199.496 1938.11 215.554C1947.95 231.611 1952.87 250.259 1952.87 271.496C1952.87 292.216 1947.95 310.734 1938.11 327.05C1928.26 343.108 1914.67 355.799 1897.31 365.122C1879.96 374.446 1860.28 379.108 1838.26 379.108ZM1838.26 329.381C1848.36 329.381 1857.43 327.05 1865.46 322.388C1873.49 317.726 1879.83 311.122 1884.49 302.575C1889.16 293.77 1891.49 283.41 1891.49 271.496C1891.49 259.323 1889.16 248.964 1884.49 240.417C1879.83 231.87 1873.49 225.266 1865.46 220.604C1857.43 215.942 1848.36 213.611 1838.26 213.611C1828.16 213.611 1819.1 215.942 1811.07 220.604C1803.04 225.266 1796.57 231.87 1791.64 240.417C1786.98 248.964 1784.65 259.323 1784.65 271.496C1784.65 283.41 1786.98 293.77 1791.64 302.575C1796.57 311.122 1803.04 317.726 1811.07 322.388C1819.1 327.05 1828.16 329.381 1838.26 329.381ZM1993.38 376V166.992H2053.98V376H1993.38ZM2023.68 137.856C2012.54 137.856 2003.48 134.618 1996.48 128.143C1989.49 121.669 1986 113.64 1986 104.057C1986 94.4742 1989.49 86.4454 1996.48 79.9706C2003.48 73.4958 2012.54 70.2583 2023.68 70.2583C2034.82 70.2583 2043.88 73.3663 2050.87 79.5821C2057.87 85.539 2061.36 93.3088 2061.36 102.892C2061.36 112.992 2057.87 121.41 2050.87 128.143C2044.14 134.618 2035.07 137.856 2023.68 137.856ZM2237.26 163.884C2253.84 163.884 2268.6 167.251 2281.55 173.985C2294.76 180.46 2305.12 190.561 2312.63 204.287C2320.14 217.755 2323.9 235.108 2323.9 256.345V376H2263.29V265.669C2263.29 248.834 2259.54 236.403 2252.03 228.374C2244.77 220.345 2234.41 216.331 2220.95 216.331C2211.36 216.331 2202.69 218.403 2194.92 222.546C2187.41 226.431 2181.45 232.518 2177.05 240.805C2172.9 249.093 2170.83 259.712 2170.83 272.662V376H2110.23V166.992H2168.11V224.877L2157.23 207.395C2164.75 193.41 2175.49 182.661 2189.48 175.151C2203.47 167.64 2219.39 163.884 2237.26 163.884ZM2464.3 379.108C2439.7 379.108 2420.53 372.892 2406.8 360.46C2393.08 347.77 2386.21 328.993 2386.21 304.129V120.762H2446.82V303.352C2446.82 312.158 2449.15 319.021 2453.81 323.942C2458.47 328.604 2464.82 330.935 2472.85 330.935C2482.43 330.935 2490.59 328.345 2497.32 323.165L2513.64 365.899C2507.42 370.302 2499.91 373.669 2491.11 376C2482.56 378.072 2473.62 379.108 2464.3 379.108ZM2353.97 218.273V171.654H2498.88V218.273H2353.97ZM2644.94 379.108C2621.11 379.108 2600.13 374.446 2582 365.122C2564.13 355.799 2550.27 343.108 2540.43 327.05C2530.59 310.734 2525.67 292.216 2525.67 271.496C2525.67 250.518 2530.46 232 2540.04 215.942C2549.88 199.626 2563.22 186.935 2580.06 177.87C2596.89 168.546 2615.93 163.884 2637.17 163.884C2657.63 163.884 2676.01 168.287 2692.33 177.093C2708.91 185.64 2721.99 198.072 2731.57 214.388C2741.15 230.446 2745.94 249.741 2745.94 272.273C2745.94 274.604 2745.81 277.324 2745.55 280.431C2745.3 283.28 2745.04 286 2744.78 288.59H2575.01V253.237H2712.92L2689.61 263.726C2689.61 252.849 2687.41 243.395 2683.01 235.367C2678.6 227.338 2672.52 221.122 2664.75 216.719C2656.98 212.057 2647.91 209.726 2637.55 209.726C2627.19 209.726 2618 212.057 2609.97 216.719C2602.2 221.122 2596.12 227.467 2591.71 235.755C2587.31 243.784 2585.11 253.367 2585.11 264.503V273.827C2585.11 285.223 2587.57 295.324 2592.49 304.129C2597.67 312.676 2604.79 319.28 2613.86 323.942C2623.18 328.345 2634.06 330.547 2646.49 330.547C2657.63 330.547 2667.34 328.863 2675.63 325.496C2684.17 322.129 2691.94 317.079 2698.94 310.345L2731.18 345.309C2721.6 356.187 2709.55 364.604 2695.05 370.561C2680.55 376.259 2663.84 379.108 2644.94 379.108Z" fill="#184474"/>
<path d="M1595.49 518.427L1575.31 464.911H1582.24L1600.59 514.553H1597.43L1616.29 464.911H1622.5L1641.16 514.553H1638L1656.65 464.911H1663.28L1642.99 518.427H1636.16L1618.22 471.74H1620.36L1602.32 518.427H1595.49ZM1708.77 518.937C1703.6 518.937 1698.95 517.781 1694.8 515.471C1690.73 513.092 1687.5 509.864 1685.12 505.787C1682.74 501.642 1681.55 496.919 1681.55 491.618C1681.55 486.249 1682.74 481.526 1685.12 477.449C1687.5 473.371 1690.73 470.177 1694.8 467.867C1698.88 465.556 1703.54 464.401 1708.77 464.401C1714.07 464.401 1718.76 465.556 1722.84 467.867C1726.98 470.177 1730.21 473.371 1732.52 477.449C1734.9 481.526 1736.09 486.249 1736.09 491.618C1736.09 496.919 1734.9 501.642 1732.52 505.787C1730.21 509.864 1726.98 513.092 1722.84 515.471C1718.69 517.781 1714 518.937 1708.77 518.937ZM1708.77 512.515C1712.64 512.515 1716.07 511.665 1719.06 509.966C1722.05 508.199 1724.4 505.753 1726.1 502.627C1727.86 499.433 1728.75 495.763 1728.75 491.618C1728.75 487.405 1727.86 483.735 1726.1 480.609C1724.4 477.483 1722.05 475.07 1719.06 473.371C1716.07 471.604 1712.68 470.721 1708.87 470.721C1705.06 470.721 1701.67 471.604 1698.68 473.371C1695.69 475.07 1693.31 477.483 1691.54 480.609C1689.77 483.735 1688.89 487.405 1688.89 491.618C1688.89 495.763 1689.77 499.433 1691.54 502.627C1693.31 505.753 1695.69 508.199 1698.68 509.966C1701.67 511.665 1705.03 512.515 1708.77 512.515ZM1765.13 518.427V464.911H1772.07V479.487L1771.35 476.939C1772.85 472.862 1775.36 469.77 1778.9 467.663C1782.43 465.488 1786.81 464.401 1792.05 464.401V471.435C1791.77 471.435 1791.5 471.435 1791.23 471.435C1790.96 471.367 1790.69 471.333 1790.41 471.333C1784.77 471.333 1780.36 473.066 1777.16 476.531C1773.97 479.929 1772.37 484.788 1772.37 491.108V518.427H1765.13ZM1825.23 504.564L1825.43 495.288L1858.77 464.911H1867.64L1844.09 487.438L1840.01 490.904L1825.23 504.564ZM1819.52 518.427V442.791H1826.76V518.427H1819.52ZM1861.01 518.427L1838.69 490.599L1843.38 484.992L1869.88 518.427H1861.01ZM1896.24 518.427V458.183C1896.24 453.426 1897.63 449.586 1900.42 446.664C1903.2 443.742 1907.21 442.281 1912.45 442.281C1914.48 442.281 1916.46 442.553 1918.36 443.096C1920.26 443.64 1921.86 444.489 1923.15 445.645L1920.7 451.047C1919.68 450.164 1918.49 449.518 1917.13 449.111C1915.78 448.635 1914.31 448.397 1912.75 448.397C1909.69 448.397 1907.35 449.246 1905.72 450.945C1904.09 452.644 1903.27 455.159 1903.27 458.489V466.644L1903.48 470.007V518.427H1896.24ZM1886.66 470.925V464.911H1919.79V470.925H1886.66ZM1929.57 518.427V442.791H1936.81V518.427H1929.57ZM1993.22 518.937C1988.05 518.937 1983.4 517.781 1979.25 515.471C1975.17 513.092 1971.95 509.864 1969.57 505.787C1967.19 501.642 1966 496.919 1966 491.618C1966 486.249 1967.19 481.526 1969.57 477.449C1971.95 473.371 1975.17 470.177 1979.25 467.867C1983.33 465.556 1987.98 464.401 1993.22 464.401C1998.52 464.401 2003.21 465.556 2007.28 467.867C2011.43 470.177 2014.66 473.371 2016.97 477.449C2019.35 481.526 2020.54 486.249 2020.54 491.618C2020.54 496.919 2019.35 501.642 2016.97 505.787C2014.66 509.864 2011.43 513.092 2007.28 515.471C2003.14 517.781 1998.45 518.937 1993.22 518.937ZM1993.22 512.515C1997.09 512.515 2000.52 511.665 2003.51 509.966C2006.5 508.199 2008.85 505.753 2010.55 502.627C2012.31 499.433 2013.2 495.763 2013.2 491.618C2013.2 487.405 2012.31 483.735 2010.55 480.609C2008.85 477.483 2006.5 475.07 2003.51 473.371C2000.52 471.604 1997.12 470.721 1993.32 470.721C1989.51 470.721 1986.12 471.604 1983.13 473.371C1980.14 475.07 1977.76 477.483 1975.99 480.609C1974.22 483.735 1973.34 487.405 1973.34 491.618C1973.34 495.763 1974.22 499.433 1975.99 502.627C1977.76 505.753 1980.14 508.199 1983.13 509.966C1986.12 511.665 1989.48 512.515 1993.22 512.515ZM2059 518.427L2038.81 464.911H2045.75L2064.09 514.553H2060.93L2079.79 464.911H2086.01L2104.66 514.553H2101.5L2120.16 464.911H2126.78L2106.5 518.427H2099.67L2081.73 471.74H2083.87L2065.83 518.427H2059ZM2207.28 518.937C2202.86 518.937 2198.68 518.325 2194.74 517.102C2190.8 515.811 2187.7 514.214 2185.46 512.311L2188.72 506.602C2190.9 508.233 2193.68 509.661 2197.08 510.884C2200.48 512.039 2204.05 512.617 2207.79 512.617C2212.88 512.617 2216.55 511.835 2218.79 510.272C2221.04 508.641 2222.16 506.501 2222.16 503.85C2222.16 501.879 2221.51 500.35 2220.22 499.263C2219 498.108 2217.37 497.258 2215.33 496.715C2213.29 496.103 2211.01 495.593 2208.5 495.186C2205.98 494.778 2203.47 494.302 2200.96 493.759C2198.51 493.215 2196.27 492.433 2194.23 491.414C2192.19 490.327 2190.52 488.866 2189.23 487.031C2188.01 485.196 2187.4 482.749 2187.4 479.691C2187.4 476.769 2188.21 474.153 2189.84 471.842C2191.48 469.532 2193.85 467.731 2196.98 466.44C2200.17 465.081 2204.05 464.401 2208.6 464.401C2212.07 464.401 2215.53 464.877 2219 465.828C2222.46 466.712 2225.32 467.901 2227.56 469.396L2224.4 475.206C2222.02 473.575 2219.47 472.42 2216.76 471.74C2214.04 470.993 2211.32 470.619 2208.6 470.619C2203.78 470.619 2200.21 471.469 2197.9 473.167C2195.66 474.798 2194.53 476.905 2194.53 479.487C2194.53 481.526 2195.15 483.123 2196.37 484.278C2197.66 485.434 2199.32 486.351 2201.36 487.031C2203.47 487.642 2205.75 488.152 2208.19 488.56C2210.71 488.968 2213.19 489.477 2215.63 490.089C2218.15 490.632 2220.43 491.414 2222.46 492.433C2224.57 493.385 2226.24 494.778 2227.46 496.613C2228.75 498.38 2229.4 500.724 2229.4 503.646C2229.4 506.772 2228.51 509.491 2226.75 511.801C2225.05 514.044 2222.53 515.811 2219.2 517.102C2215.94 518.325 2211.96 518.937 2207.28 518.937ZM2278.76 518.937C2273.6 518.937 2268.94 517.781 2264.8 515.471C2260.72 513.092 2257.49 509.864 2255.11 505.787C2252.73 501.642 2251.54 496.919 2251.54 491.618C2251.54 486.249 2252.73 481.526 2255.11 477.449C2257.49 473.371 2260.72 470.177 2264.8 467.867C2268.87 465.556 2273.53 464.401 2278.76 464.401C2284.06 464.401 2288.75 465.556 2292.83 467.867C2296.97 470.177 2300.2 473.371 2302.51 477.449C2304.89 481.526 2306.08 486.249 2306.08 491.618C2306.08 496.919 2304.89 501.642 2302.51 505.787C2300.2 509.864 2296.97 513.092 2292.83 515.471C2288.68 517.781 2283.99 518.937 2278.76 518.937ZM2278.76 512.515C2282.64 512.515 2286.07 511.665 2289.06 509.966C2292.05 508.199 2294.39 505.753 2296.09 502.627C2297.86 499.433 2298.74 495.763 2298.74 491.618C2298.74 487.405 2297.86 483.735 2296.09 480.609C2294.39 477.483 2292.05 475.07 2289.06 473.371C2286.07 471.604 2282.67 470.721 2278.86 470.721C2275.06 470.721 2271.66 471.604 2268.67 473.371C2265.68 475.07 2263.3 477.483 2261.53 480.609C2259.77 483.735 2258.88 487.405 2258.88 491.618C2258.88 495.763 2259.77 499.433 2261.53 502.627C2263.3 505.753 2265.68 508.199 2268.67 509.966C2271.66 511.665 2275.02 512.515 2278.76 512.515ZM2335.13 518.427V442.791H2342.36V518.427H2335.13ZM2398.89 518.937C2394.34 518.937 2390.37 518.087 2386.97 516.388C2383.57 514.689 2380.92 512.141 2379.02 508.743C2377.18 505.345 2376.26 501.098 2376.26 496.001V464.911H2383.5V495.186C2383.5 500.894 2384.89 505.209 2387.68 508.131C2390.54 510.986 2394.51 512.413 2399.61 512.413C2403.35 512.413 2406.57 511.665 2409.29 510.17C2412.08 508.607 2414.18 506.365 2415.61 503.442C2417.11 500.52 2417.85 497.02 2417.85 492.943V464.911H2425.09V518.427H2418.16V503.748L2419.28 506.399C2417.58 510.34 2414.93 513.432 2411.33 515.675C2407.8 517.849 2403.65 518.937 2398.89 518.937ZM2476.45 518.937C2471.43 518.937 2467.55 517.578 2464.83 514.859C2462.12 512.141 2460.76 508.301 2460.76 503.341V453.086H2467.99V502.933C2467.99 506.059 2468.78 508.471 2470.34 510.17C2471.97 511.869 2474.28 512.719 2477.27 512.719C2480.46 512.719 2483.11 511.801 2485.22 509.966L2487.77 515.165C2486.34 516.456 2484.61 517.408 2482.57 518.019C2480.6 518.631 2478.56 518.937 2476.45 518.937ZM2451.17 470.925V464.911H2484.3V470.925H2451.17ZM2515.22 518.427V464.911H2522.45V518.427H2515.22ZM2518.89 453.086C2517.39 453.086 2516.13 452.576 2515.11 451.557C2514.09 450.538 2513.58 449.314 2513.58 447.887C2513.58 446.46 2514.09 445.271 2515.11 444.32C2516.13 443.3 2517.39 442.791 2518.89 442.791C2520.38 442.791 2521.64 443.266 2522.66 444.218C2523.68 445.169 2524.19 446.358 2524.19 447.785C2524.19 449.28 2523.68 450.538 2522.66 451.557C2521.71 452.576 2520.45 453.086 2518.89 453.086ZM2578.68 518.937C2573.51 518.937 2568.86 517.781 2564.71 515.471C2560.63 513.092 2557.41 509.864 2555.03 505.787C2552.65 501.642 2551.46 496.919 2551.46 491.618C2551.46 486.249 2552.65 481.526 2555.03 477.449C2557.41 473.371 2560.63 470.177 2564.71 467.867C2568.79 465.556 2573.44 464.401 2578.68 464.401C2583.98 464.401 2588.67 465.556 2592.74 467.867C2596.89 470.177 2600.12 473.371 2602.43 477.449C2604.81 481.526 2606 486.249 2606 491.618C2606 496.919 2604.81 501.642 2602.43 505.787C2600.12 509.864 2596.89 513.092 2592.74 515.471C2588.6 517.781 2583.91 518.937 2578.68 518.937ZM2578.68 512.515C2582.55 512.515 2585.98 511.665 2588.97 509.966C2591.96 508.199 2594.31 505.753 2596.01 502.627C2597.77 499.433 2598.66 495.763 2598.66 491.618C2598.66 487.405 2597.77 483.735 2596.01 480.609C2594.31 477.483 2591.96 475.07 2588.97 473.371C2585.98 471.604 2582.58 470.721 2578.78 470.721C2574.97 470.721 2571.57 471.604 2568.58 473.371C2565.59 475.07 2563.22 477.483 2561.45 480.609C2559.68 483.735 2558.8 487.405 2558.8 491.618C2558.8 495.763 2559.68 499.433 2561.45 502.627C2563.22 505.753 2565.59 508.199 2568.58 509.966C2571.57 511.665 2574.94 512.515 2578.68 512.515ZM2662.36 464.401C2666.71 464.401 2670.52 465.25 2673.78 466.949C2677.11 468.58 2679.69 471.095 2681.52 474.493C2683.43 477.89 2684.38 482.172 2684.38 487.337V518.427H2677.14V488.05C2677.14 482.41 2675.71 478.162 2672.86 475.308C2670.07 472.386 2666.13 470.925 2661.04 470.925C2657.23 470.925 2653.9 471.706 2651.05 473.269C2648.26 474.764 2646.09 476.973 2644.52 479.895C2643.03 482.749 2642.28 486.215 2642.28 490.293V518.427H2635.04V464.911H2641.97V479.589L2640.85 476.837C2642.55 472.964 2645.27 469.939 2649.01 467.765C2652.74 465.522 2657.2 464.401 2662.36 464.401ZM2732.57 518.937C2728.16 518.937 2723.98 518.325 2720.03 517.102C2716.09 515.811 2713 514.214 2710.76 512.311L2714.02 506.602C2716.19 508.233 2718.98 509.661 2722.38 510.884C2725.78 512.039 2729.34 512.617 2733.08 512.617C2738.18 512.617 2741.85 511.835 2744.09 510.272C2746.33 508.641 2747.46 506.501 2747.46 503.85C2747.46 501.879 2746.81 500.35 2745.52 499.263C2744.3 498.108 2742.66 497.258 2740.63 496.715C2738.59 496.103 2736.31 495.593 2733.8 495.186C2731.28 494.778 2728.77 494.302 2726.25 493.759C2723.81 493.215 2721.56 492.433 2719.52 491.414C2717.49 490.327 2715.82 488.866 2714.53 487.031C2713.31 485.196 2712.7 482.749 2712.7 479.691C2712.7 476.769 2713.51 474.153 2715.14 471.842C2716.77 469.532 2719.15 467.731 2722.28 466.44C2725.47 465.081 2729.34 464.401 2733.9 464.401C2737.36 464.401 2740.83 464.877 2744.3 465.828C2747.76 466.712 2750.62 467.901 2752.86 469.396L2749.7 475.206C2747.32 473.575 2744.77 472.42 2742.05 471.74C2739.33 470.993 2736.62 470.619 2733.9 470.619C2729.07 470.619 2725.5 471.469 2723.19 473.167C2720.95 474.798 2719.83 476.905 2719.83 479.487C2719.83 481.526 2720.44 483.123 2721.67 484.278C2722.96 485.434 2724.62 486.351 2726.66 487.031C2728.77 487.642 2731.04 488.152 2733.49 488.56C2736 488.968 2738.48 489.477 2740.93 490.089C2743.45 490.632 2745.72 491.414 2747.76 492.433C2749.87 493.385 2751.53 494.778 2752.76 496.613C2754.05 498.38 2754.69 500.724 2754.69 503.646C2754.69 506.772 2753.81 509.491 2752.04 511.801C2750.34 514.044 2747.83 515.811 2744.5 517.102C2741.24 518.325 2737.26 518.937 2732.57 518.937Z" fill="#7F7F7F"/>
</svg>
